<?xml version="1.0" encoding="iso-8859-1"?>
<!-- Generator: Adobe Illustrator 19.1.0, SVG Export Plug-In . SVG Version: 6.00 Build 0)  -->
<svg version="1.1" id="Capa_1" xmlns="http://www.w3.org/2000/svg" xmlns:xlink="http://www.w3.org/1999/xlink" x="0px" y="0px"
	 viewBox="0 0 450 450" style="enable-background:new 0 0 450 450;" xml:space="preserve">
<g>
	<path d="M40,350v-40c50.346,0.115,101.089,0.323,151.812,0.297c1.349-3.499,3.436-7.297,6.219-9.297h0.031l30.594-31H80v-10
		h158.656l40.188-40.188C199.179,219.754,119,220,40,220v-40c95,0.236,191.716,0.072,287.094,0.031
		c0.47-0.046,0.932-0.105,1.406-0.125c1.14-0.049,2.28,0.023,3.438,0.125C341.26,180.027,351,180,360,180v40c-1-0.003-2,0.003-3,0
		v16h43v-76c0-5.236-2.142-10.454-5.844-14.156C390.454,142.141,385.235,140,380,140h-20v-10h20c5.236,0,10.454-2.141,14.156-5.844
		c3.702-3.702,5.844-8.92,5.844-14.156V30c0-5.236-2.142-10.454-5.844-14.156C390.454,12.141,385.235,10,380,10H20
		c-5.236,0-10.454,2.141-14.156,5.844C2.141,19.546,0.001,24.764,0,30v80c0.001,5.236,2.141,10.454,5.844,14.156
		c3.702,3.702,8.92,5.843,14.156,5.844h20v10H20c-5.236,0.001-10.454,2.141-14.156,5.844C2.141,149.546,0.001,154.764,0,160v80
		c0.001,5.236,2.141,10.454,5.844,14.156c3.702,3.702,8.92,5.843,14.156,5.844h20v10H20c-5.236,0-10.454,2.141-14.156,5.844
		C2.141,279.546,0.001,284.764,0,290v80c0.001,5.236,2.141,10.454,5.844,14.156C9.546,387.858,14.764,390,20,390h228.594l-40-40H40z
		 M320,140H80v-10h240V140z M40,50h320v40c-106.112-0.439-214.013,0-320,0V50z"/>
	<path d="M447.803,258.343c-1.388-1.388-3.34-2.343-5.303-2.343H337v-48.458c0-2.941-1.664-5.791-4.382-6.916
		s-5.957-0.458-8.04,1.619l-112.438,112.5c-1.384,1.388-2.159,3.336-2.159,5.297s0.821,3.909,2.206,5.297l112.508,112.5
		c2.083,2.077,5.201,2.744,7.919,1.619c2.718-1.125,4.386-3.974,4.386-6.916V384h105.5c1.963,0,3.915-0.912,5.303-2.301
		c1.388-1.388,2.197-3.444,2.197-5.407v-112.5C450,261.829,449.191,259.731,447.803,258.343z"/>
</g>
<g>
</g>
<g>
</g>
<g>
</g>
<g>
</g>
<g>
</g>
<g>
</g>
<g>
</g>
<g>
</g>
<g>
</g>
<g>
</g>
<g>
</g>
<g>
</g>
<g>
</g>
<g>
</g>
<g>
</g>
</svg>
