<svg height="512pt" viewBox="0 -55 512 512" width="512pt" xmlns="http://www.w3.org/2000/svg"><path d="m349.703125 77.175781h-225.726563v-77.175781l-123.976562 123.980469 123.976562 123.976562v-79.765625h225.726563c39.304687 0 71.28125 31.976563 71.28125 71.28125 0 39.304688-31.976563 71.28125-71.28125 71.28125h-257.425781v91.015625h257.425781c89.492187 0 162.296875-72.804687 162.296875-162.296875 0-89.492187-72.804688-162.296875-162.296875-162.296875zm0 294.253907h-227.089844v-30.339844h227.089844c56.03125 0 101.617187-45.585938 101.617187-101.617188 0-56.035156-45.585937-101.621094-101.617187-101.621094h-256.0625v36.867188l-50.738281-50.738281 50.738281-50.738281v34.269531h256.0625c72.765625 0 131.960937 59.199219 131.960937 131.960937 0 72.761719-59.195312 131.957032-131.960937 131.957032zm0 0"/></svg>