<svg xmlns="http://www.w3.org/2000/svg" height="600pt" version="1.1" viewBox="0 0 600 600.01388" width="600pt">
<g id="surface1">
<path d="M 569.804688 0 L 391.804688 0 C 389.148438 0 386.609375 1.054688 384.734375 2.929688 L 2.933594 384.730469 C -0.96875 388.632812 -0.96875 394.964844 2.933594 398.871094 L 200.929688 596.871094 C 204.835938 600.773438 211.171875 600.773438 215.070312 596.871094 L 258.945312 553 C 329.886719 617.796875 439.246094 615.320312 507.1875 547.382812 C 575.125 479.445312 577.601562 370.082031 512.800781 299.140625 L 596.875 215.070312 C 598.75 213.195312 599.804688 210.65625 599.804688 208 L 599.804688 30 C 599.804688 13.433594 586.371094 0 569.804688 0 Z M 379.804688 580 C 291.4375 580 219.804688 508.363281 219.804688 420 C 219.804688 331.636719 291.4375 260 379.804688 260 C 468.167969 260 539.804688 331.636719 539.804688 420 C 539.699219 508.320312 468.125 579.898438 379.804688 580 Z M 579.804688 203.863281 L 498.5625 285.085938 C 427.414062 222.179688 319.601562 225.488281 252.445312 292.640625 C 185.292969 359.800781 181.980469 467.613281 244.890625 538.757812 L 208 575.660156 L 24.144531 391.800781 L 395.941406 20 L 569.804688 20 C 575.324219 20 579.804688 24.476562 579.804688 30 Z M 579.804688 203.863281 " style=" stroke:none;fill-rule:nonzero;fill:rgb(0%,0%,0%);fill-opacity:1;" />
<path d="M 501.523438 41.71875 C 485.898438 57.339844 485.898438 82.671875 501.515625 98.289062 C 517.136719 113.914062 542.46875 113.914062 558.089844 98.289062 C 573.710938 82.671875 573.710938 57.339844 558.085938 41.71875 C 542.265625 26.597656 517.34375 26.597656 501.523438 41.71875 Z M 543.945312 84.140625 C 536.035156 91.699219 523.574219 91.699219 515.664062 84.140625 C 507.851562 76.328125 507.851562 63.667969 515.664062 55.855469 C 523.46875 48.042969 536.136719 48.042969 543.945312 55.855469 C 551.757812 63.667969 551.757812 76.328125 543.945312 84.140625 Z M 543.945312 84.140625 " style=" stroke:none;fill-rule:nonzero;fill:rgb(0%,0%,0%);fill-opacity:1;" />
<path d="M 389.804688 290 L 369.804688 290 L 369.804688 410 L 249.804688 410 L 249.804688 430 L 369.804688 430 L 369.804688 550 L 389.804688 550 L 389.804688 430 L 509.804688 430 L 509.804688 410 L 389.804688 410 Z M 389.804688 290 " style=" stroke:none;fill-rule:nonzero;fill:rgb(0%,0%,0%);fill-opacity:1;" />
</g>
</svg>